<svg version="1.1" xmlns="http://www.w3.org/2000/svg" width="512" height="512"><g transform="translate(25.599999999999994,60.934453781512616) scale(0.9680672268907563)">
<path d="M0 0 C0.88106415 0.00087616 1.7621283 0.00175232 2.66989136 0.00265503 C50.08507574 0.15781892 95.12245256 17.60045994 129.625 50.375 C130.95292341 51.50638066 132.28591589 52.6318513 133.625 53.75 C169.42816486 85.10511383 189.0924697 134.41310848 192.47998047 181.046875 C195.55110751 230.35035564 179.18543966 280.93156537 146.56494141 318.21972656 C113.86042862 354.55441557 68.40973128 381.76313249 18.53909302 384.48901367 C16.33823434 384.55461133 14.13922527 384.59125463 11.9375 384.61328125 C11.12569275 384.6230751 10.3138855 384.63286896 9.47747803 384.64295959 C-15.99065472 384.88685896 -39.15650806 382.75083233 -63.375 374.375 C-65.23898438 373.73304688 -65.23898438 373.73304688 -67.140625 373.078125 C-114.87578298 355.20372664 -153.89578007 318.72894169 -175.18334961 272.47680664 C-186.15876175 247.79813069 -191.75996145 222.19377716 -191.69067383 195.19726562 C-191.68752035 192.64148957 -191.7110564 190.08688373 -191.73632812 187.53125 C-191.79612965 172.17994872 -189.882513 157.23005458 -185.6875 142.4375 C-185.43258789 141.52766357 -185.17767578 140.61782715 -184.91503906 139.68041992 C-178.09206637 116.13219726 -167.12114467 94.8988108 -152.375 75.375 C-151.6840625 74.43914062 -150.993125 73.50328125 -150.28125 72.5390625 C-139.3983326 58.50355395 -126.01028789 45.44258658 -111.375 35.375 C-110.35277344 34.65828125 -109.33054687 33.9415625 -108.27734375 33.203125 C-75.50904272 11.17532788 -39.44691733 -0.09601176 0 0 Z M-97.375 53.375 C-98.426875 54.1278125 -99.47875 54.880625 -100.5625 55.65625 C-117.55307806 68.21493637 -131.86545256 83.70980452 -143.375 101.375 C-144.0453125 102.38304688 -144.715625 103.39109375 -145.40625 104.4296875 C-168.91867618 142.15644405 -175.00652735 190.12259841 -165.12109375 233.00390625 C-162.14017151 245.07392378 -157.89754496 256.25350083 -152.375 267.375 C-152.05273438 268.03580566 -151.73046875 268.69661133 -151.3984375 269.37744141 C-132.05634685 308.72011868 -96.44712779 338.68726707 -55.375 353.375 C-11.19608402 368.22214782 35.83055793 364.72715259 77.625 344.375 C86.53617115 339.8820249 94.73900851 334.48634959 102.625 328.375 C103.45902344 327.7459375 104.29304688 327.116875 105.15234375 326.46875 C124.6694168 311.20727935 140.22769834 292.33565442 151.625 270.375 C152.21667969 269.24449219 152.80835938 268.11398437 153.41796875 266.94921875 C161.11052769 251.41126857 166.20802138 234.5355482 168.625 217.375 C168.7178125 216.73288574 168.810625 216.09077148 168.90625 215.42919922 C173.23842132 181.95543973 167.59736215 147.52688008 152.625 117.375 C152.30273438 116.71419434 151.98046875 116.05338867 151.6484375 115.37255859 C144.12051085 100.06041918 134.01471281 87.00855725 122.625 74.375 C121.91085937 73.57578125 121.19671875 72.7765625 120.4609375 71.953125 C92.07199975 41.92004028 47.62100671 23.437939 6.6015625 22.19140625 C-30.61852619 21.5062058 -66.99477523 31.53921345 -97.375 53.375 Z " fill="#257AA9" transform="translate(241.375,8.625)"/>
<path d="M0 0 C0.67664615 -0.00453111 1.3532923 -0.00906223 2.05044287 -0.01373065 C4.30491394 -0.02633338 6.55914214 -0.02475698 8.81364441 -0.02310181 C10.43537708 -0.02908966 12.05710691 -0.0358958 13.67883301 -0.04345703 C18.07565129 -0.06109848 22.47239169 -0.06581164 26.86924195 -0.0670886 C29.61885716 -0.06851186 32.36845267 -0.07278476 35.11806297 -0.07808304 C44.71810027 -0.09657745 54.31808208 -0.10475442 63.9181366 -0.10317993 C72.85454537 -0.10197882 81.7907125 -0.12307676 90.72706014 -0.15466726 C98.40964763 -0.18085394 106.09215632 -0.19154622 113.77478808 -0.19026911 C118.35872217 -0.18976017 122.94244147 -0.195406 127.52633095 -0.21662521 C131.83975006 -0.23604788 136.15275037 -0.23610472 140.46618462 -0.22159195 C142.04433431 -0.21950771 143.62251049 -0.22418176 145.20061493 -0.23631287 C154.69121673 -0.30451158 162.78470768 -0.06420843 170.37687683 6.19711304 C170.90410339 6.83906616 171.43132996 7.48101929 171.97453308 8.14242554 C172.51980652 8.77922241 173.06507996 9.41601929 173.62687683 10.07211304 C177.33844446 15.85023218 177.33866785 21.61221516 177.34342957 28.2449646 C177.35175308 29.2343956 177.3600766 30.2238266 177.36865234 31.24324036 C177.3927006 34.50655075 177.40151861 37.76966099 177.40812683 41.03305054 C177.41709771 43.30980487 177.42621963 45.58655862 177.43548584 47.86331177 C177.45196478 52.6345869 177.45967387 57.40579196 177.46257019 62.17709351 C177.46795002 68.27447518 177.50561919 74.37119315 177.55131435 80.4683876 C177.5811387 85.17146171 177.58829494 89.8743771 177.58929634 94.57753754 C177.5934886 96.82450141 177.60588266 99.07146619 177.62681389 101.31833649 C177.65383629 104.47014887 177.64886965 107.62043715 177.63639832 110.77230835 C177.65864975 112.14892891 177.65864975 112.14892891 177.68135071 113.55335999 C177.59908474 120.89836618 175.43950548 127.25836689 170.62970638 132.92564774 C165.21373412 137.87704349 159.09897354 138.555668 152.03703308 138.26742554 C151.88234558 139.81430054 151.88234558 139.81430054 151.72453308 141.39242554 C150.48180484 148.39689382 147.59530911 152.31956032 142.22062683 156.78695679 C137.28276356 160.13481042 131.92225008 160.56168639 126.03703308 160.26742554 C122.81437683 155.09164429 122.81437683 155.09164429 122.03703308 153.26742554 C122.36703308 152.27742554 122.69703308 151.28742554 123.03703308 150.26742554 C124.23328308 150.30867554 125.42953308 150.34992554 126.66203308 150.39242554 C131.66457396 150.37474871 135.43196715 149.61221051 139.34953308 146.32992554 C141.80045755 143.33435119 142.16231755 140.85406749 142.17747498 137.11268616 C142.18318512 136.26740356 142.18889526 135.42212097 142.19477844 134.55122375 C142.1958963 133.62701126 142.19701416 132.70279877 142.19816589 131.75057983 C142.2031308 130.77466888 142.2080957 129.79875793 142.21321106 128.79327393 C142.22783591 125.55939025 142.23463531 122.32555563 142.24015808 119.09164429 C142.24590935 116.84586078 142.25166708 114.6000773 142.25743103 112.35429382 C142.26794199 107.64247407 142.27378401 102.93067138 142.27726746 98.21884155 C142.28275179 92.18281944 142.30677831 86.14702294 142.33523941 80.11107159 C142.35386816 75.47079307 142.35907153 70.83056887 142.36060333 66.19025612 C142.36362993 63.9651243 142.37165869 61.73999344 142.38478851 59.5148983 C142.40185332 56.40057616 142.39996749 53.28680483 142.39347839 50.17245483 C142.40730057 48.79524513 142.40730057 48.79524513 142.42140198 47.39021301 C142.38820844 42.30169842 142.04288751 38.57993147 139.03703308 34.26742554 C134.94396668 31.16302397 131.82926261 30.88764657 126.75653076 30.87301636 C126.03370326 30.86692525 125.31087577 30.86083415 124.56614441 30.85455847 C122.14946024 30.83793898 119.73330357 30.84270261 117.3165741 30.84750366 C115.58174594 30.84016274 113.84692268 30.83157644 112.11210632 30.82183838 C107.40342878 30.79961698 102.69492621 30.79669198 97.98620343 30.79858589 C94.05471299 30.79870556 90.12325967 30.79014319 86.19177955 30.78180838 C76.91678355 30.76257235 67.64187755 30.75969135 58.36686707 30.76644897 C48.79927652 30.77309147 39.23207133 30.75021746 29.66455895 30.71313524 C21.44869849 30.68244753 13.23296207 30.67107716 5.01704544 30.67497206 C0.11066738 30.67704037 -4.79541076 30.67154743 -9.70173454 30.64707947 C-14.31560854 30.62482997 -18.92885547 30.62667505 -23.54273224 30.64700699 C-25.23501891 30.65042014 -26.92734764 30.64531474 -28.61957741 30.63102341 C-30.93227657 30.61284121 -33.24284593 30.62556902 -35.55548096 30.64596558 C-36.84871497 30.64525307 -38.14194899 30.64454056 -39.47437191 30.64380646 C-44.09136635 31.46913752 -45.69988819 32.94268031 -48.96296692 36.26742554 C-49.87997173 39.01843997 -50.09395835 40.6623495 -50.11013794 43.49809265 C-50.11729324 44.36020355 -50.12444855 45.22231445 -50.13182068 46.11054993 C-50.13450958 47.0534639 -50.13719849 47.99637787 -50.13996887 48.96786499 C-50.14982567 50.46099213 -50.14982567 50.46099213 -50.15988159 51.98428345 C-50.17961546 55.28309197 -50.19127677 58.58185499 -50.20124817 61.88070679 C-50.2053237 63.00682058 -50.20939922 64.13293438 -50.21359825 65.29317284 C-50.23445829 71.2522806 -50.24876093 77.21136533 -50.25813293 83.17050171 C-50.26920367 89.32765615 -50.30361177 95.48444982 -50.34330463 101.64147663 C-50.36943732 106.37440162 -50.37782176 111.10724015 -50.38141441 115.84023094 C-50.38628816 118.11003242 -50.39792445 120.37982984 -50.41645241 122.64956093 C-50.44077435 125.82626667 -50.43989132 129.00203234 -50.43293762 132.17880249 C-50.45215271 133.58406441 -50.45215271 133.58406441 -50.47175598 135.01771545 C-50.42620363 140.7287711 -49.72897632 143.89699657 -45.96296692 148.26742554 C-45.30296692 148.59742554 -44.64296692 148.92742554 -43.96296692 149.26742554 C-43.60501038 148.30135376 -43.60501038 148.30135376 -43.23982239 147.31576538 C-41.54292748 143.26463158 -39.54295949 139.3975093 -37.53327942 135.49398804 C-37.10167511 134.65201874 -36.6700708 133.81004944 -36.22538757 132.94256592 C-35.31363262 131.16520858 -34.40077675 129.38841563 -33.4868927 127.6121521 C-32.09710135 124.91018428 -30.71141137 122.20614335 -29.32624817 119.50180054 C-28.43716992 117.76990408 -27.54785469 116.03812926 -26.65827942 114.30648804 C-26.24772308 113.50522491 -25.83716675 112.70396179 -25.41416931 111.87841797 C-23.04081694 107.2714222 -20.56795537 102.74770753 -17.96296692 98.26742554 C-13.58329619 98.77668957 -10.55317264 99.67449918 -6.96296692 102.26742554 C-4.96296692 105.26742554 -4.96296692 105.26742554 -5.19515991 107.64901733 C-5.98470522 110.34155843 -6.98175415 112.65901456 -8.24787903 115.16195679 C-8.72184616 116.10643677 -9.19581329 117.05091675 -9.68414307 118.02401733 C-10.19767838 119.03246704 -10.71121368 120.04091675 -11.24031067 121.07992554 C-12.03013084 122.64964111 -12.03013084 122.64964111 -12.83590698 124.25106812 C-14.51843908 127.59274109 -16.20904272 130.93024583 -17.90046692 134.26742554 C-19.5869431 137.60527804 -21.2716989 140.94398302 -22.95431519 144.28378296 C-24.00126739 146.36075769 -25.05068568 148.4364916 -26.10284424 150.51083374 C-26.57996353 151.45531372 -27.05708282 152.3997937 -27.54866028 153.37289429 C-28.17701027 154.61269043 -28.17701027 154.61269043 -28.8180542 155.87753296 C-30.02817101 158.28327109 -30.02817101 158.28327109 -30.89511108 160.99911499 C-31.24750351 161.74765747 -31.59989594 162.49619995 -31.96296692 163.26742554 C-35.46296692 164.45492554 -35.46296692 164.45492554 -38.96296692 165.26742554 C-41.12002207 167.02385863 -41.12002207 167.02385863 -41.22859192 169.14242554 C-41.22343567 169.84367554 -41.21827942 170.54492554 -41.21296692 171.26742554 C-41.21812317 171.96867554 -41.22327942 172.66992554 -41.22859192 173.39242554 C-41.12002207 175.51099244 -41.12002207 175.51099244 -38.96296692 177.26742554 C-35.78900948 178.38259977 -34.38047236 178.42873446 -31.21296692 177.20492554 C-28.74504176 175.41448862 -28.74504176 175.41448862 -28.02546692 172.45492554 C-27.71759914 169.26563321 -27.71759914 169.26563321 -29.23664856 166.6980896 C-30.36520592 161.36750538 -27.95020538 157.89481091 -25.52156067 153.18930054 C-25.04227615 152.22268494 -24.56299164 151.25606934 -24.06918335 150.26016235 C-22.53140061 147.16961418 -20.96653342 144.09372213 -19.40046692 141.01742554 C-18.3719554 138.96234522 -17.3452423 136.90636378 -16.32038879 134.84945679 C-14.41858606 131.04006149 -12.50708968 127.23593425 -10.5818634 123.43832397 C-10.15275665 122.58331299 -9.7236499 121.728302 -9.28153992 120.84738159 C-8.37387333 119.07141629 -7.43879202 117.30928354 -6.48155212 115.55953979 C-6.0140152 114.68744873 -5.54647827 113.81535767 -5.06477356 112.9168396 C-4.42397606 111.75526337 -4.42397606 111.75526337 -3.77023315 110.57022095 C-2.77460978 107.73012082 -3.17085132 106.13159041 -3.96296692 103.26742554 C-4.05706848 102.53910522 -4.15117004 101.81078491 -4.24812317 101.06039429 C-4.81414641 99.06641133 -4.81414641 99.06641133 -6.95906067 98.25570679 C-8.16755676 97.92119507 -8.16755676 97.92119507 -9.40046692 97.57992554 C-13.95541975 96.27119912 -13.95541975 96.27119912 -15.96296692 95.26742554 C-14.60118714 90.84257854 -12.86046185 86.86843374 -10.73249817 82.75961304 C-10.41898911 82.1528775 -10.10548004 81.54614197 -9.7824707 80.92102051 C-9.11971747 79.64086944 -8.45482883 78.36182188 -7.78791809 77.08383179 C-6.79053272 75.17131468 -5.80102785 73.25488465 -4.81257629 71.33773804 C8.9258353 44.80250693 8.9258353 44.80250693 15.91203308 40.57992554 C16.54882996 40.18418335 17.18562683 39.78844116 17.84172058 39.38070679 C26.35975461 35.0610632 36.86868501 34.89321128 46.12297058 36.95492554 C48.60392077 37.87096868 50.76971959 38.91047276 53.03703308 40.26742554 C53.65578308 40.63351929 54.27453308 40.99961304 54.91203308 41.37680054 C66.11464992 49.47869307 72.30911023 68.42695286 78.41203308 80.45492554 C80.1889001 83.94932259 81.96778966 87.44268438 83.74797058 90.93539429 C84.18562744 91.79442352 84.6232843 92.65345276 85.07420349 93.53851318 C89.29131947 101.79854766 93.61441963 110.00132115 97.94749451 118.20092773 C100.50099477 123.04408134 103.01716611 127.90671864 105.53703308 132.76742554 C108.67899458 138.82401591 111.8242234 144.87832036 115.01750183 150.90805054 C115.47640808 151.77494507 115.93531433 152.6418396 116.40812683 153.53500366 C117.25874457 155.13906174 118.11146377 156.742008 118.96672058 158.34359741 C123.25273308 166.42558345 125.81841662 173.2853585 123.45500183 182.54867554 C120.99506341 188.38962522 116.50779183 191.35573258 111.03703308 194.26742554 C105.66566457 196.05788171 100.71531925 195.80789057 95.34953308 194.07992554 C88.38052599 190.26669524 85.06756242 186.39618574 81.78703308 179.32992554 C81.44929871 178.63963257 81.11156433 177.9493396 80.76359558 177.23812866 C78.8485502 173.2610167 77.45124728 169.51006814 76.03703308 165.26742554 C52.93703308 165.26742554 29.83703308 165.26742554 6.03703308 165.26742554 C6.93808547 160.76216357 8.27806959 157.45098003 10.38078308 153.47055054 C10.70993713 152.83631165 11.03909119 152.20207275 11.3782196 151.5486145 C12.07129919 150.21589236 12.76736084 148.88471726 13.4662323 147.55502319 C14.53923767 145.51323048 15.60334317 143.4669954 16.66593933 141.41976929 C17.34121121 140.1239308 18.01697518 138.82834861 18.69328308 137.53305054 C19.01309143 136.9195575 19.33289978 136.30606445 19.66239929 135.67398071 C21.91947747 131.38498115 21.91947747 131.38498115 23.03703308 130.26742554 C25.41041947 130.10770577 27.7582158 130.00818224 30.13468933 129.95101929 C31.19797707 129.91984764 31.19797707 129.91984764 32.28274536 129.88804626 C34.55490613 129.82247956 36.82718573 129.76363324 39.09953308 129.70492554 C40.63665492 129.66174705 42.17376458 129.61813298 43.71086121 129.57406616 C47.48612898 129.46679105 51.26151668 129.36554416 55.03703308 129.26742554 C54.82047058 128.65254272 54.60390808 128.03765991 54.38078308 127.40414429 C54.10234558 126.5959021 53.82390808 125.78765991 53.53703308 124.95492554 C53.25859558 124.15441772 52.98015808 123.35390991 52.69328308 122.52914429 C52.03703308 120.26742554 52.03703308 120.26742554 52.03703308 117.26742554 C54.78703308 115.64242554 54.78703308 115.64242554 58.03703308 114.26742554 C60.28703308 115.01742554 60.28703308 115.01742554 62.03703308 116.26742554 C64.83573335 117.66677567 66.942021 117.52007958 70.03703308 117.26742554 C72.0565437 116.33145238 72.0565437 116.33145238 73.03703308 114.26742554 C73.57238751 109.60490386 73.57238751 109.60490386 71.84953308 105.39242554 C70.05903277 104.08083294 70.05903277 104.08083294 67.68937683 104.13461304 C64.33502141 103.03790184 63.44494282 101.33226656 61.80241394 98.30184937 C61.46733826 97.6304895 61.13226257 96.95912964 60.78703308 96.26742554 C60.43713318 95.58768677 60.08723328 94.907948 59.72673035 94.20761108 C57.07240283 88.83184689 54.74657844 83.33115538 56.66593933 77.28695679 C57.16212183 74.58667938 56.36455951 73.50926542 55.03703308 71.14242554 C52.81013582 66.57539895 52.96617133 63.44069444 53.97062683 58.52914429 C54.23164387 56.16753458 54.23164387 56.16753458 52.79093933 54.00570679 C51.02593228 51.91083101 51.02593228 51.91083101 47.53703308 51.76742554 C44.06918907 51.95658435 44.06918907 51.95658435 42.03703308 53.89242554 C40.69522424 57.07922154 41.10756104 58.97852446 42.03703308 62.26742554 C43.90521559 64.58609113 43.90521559 64.58609113 46.91203308 64.39242554 C50.37883909 65.36313122 50.74653588 65.68014461 52.47453308 68.64242554 C54.06351012 72.22392934 53.99702048 74.35021465 53.22453308 78.14242554 C52.16030002 85.08434942 55.56424557 90.20903797 58.873703 96.07357788 C59.28853943 96.81688354 59.70337585 97.56018921 60.13078308 98.32601929 C60.51943542 98.98916138 60.90808777 99.65230347 61.30851746 100.33554077 C62.21661359 102.74363887 61.8541757 103.86783593 61.03703308 106.26742554 C60.87203308 107.09242554 60.70703308 107.91742554 60.53703308 108.76742554 C58.74704536 111.7507384 57.59278184 112.10580017 54.44328308 113.42367554 C53.21061707 113.94671265 53.21061707 113.94671265 51.95304871 114.48031616 C51.32076355 114.74006226 50.68847839 114.99980835 50.03703308 115.26742554 C48.40791176 112.20710095 46.78447608 109.14379516 45.16203308 106.07992554 C44.70183777 105.21560913 44.24164246 104.35129272 43.76750183 103.46078491 C43.32277527 102.61967163 42.87804871 101.77855835 42.41984558 100.91195679 C42.0113739 100.14214478 41.60290222 99.37233276 41.18205261 98.57919312 C39.99626987 96.18512557 38.99692053 93.75966342 38.03703308 91.26742554 C33.24532951 92.07811197 31.6697713 92.39689092 28.73283386 96.43759155 C28.0417025 97.78666221 27.3762415 99.14908829 26.73234558 100.52133179 C26.17992691 101.62190163 26.17992691 101.62190163 25.61634827 102.7447052 C24.4421336 105.0959459 23.30154537 107.46170281 22.16203308 109.82992554 C21.40516727 111.36424002 20.64607028 112.89745599 19.88468933 114.42953491 C18.74299594 116.72881147 17.60359093 119.02899113 16.47363281 121.33406067 C13.12483556 128.15785608 9.5790075 134.86776401 6.00090027 141.57333374 C3.79596872 145.70735243 1.67141739 149.87773069 -0.40046692 154.07992554 C-0.72466614 154.73283569 -1.04886536 155.38574585 -1.38288879 156.05844116 C-2.24447415 157.79399606 -3.10384913 159.53064784 -3.96296692 161.26742554 C-4.62878257 162.60118404 -5.29495786 163.93476425 -5.96296692 165.26742554 C-8.92471815 164.65464942 -10.34355475 164.01370032 -12.96296692 162.26742554 C-12.35962842 158.43266886 -11.22018808 155.45850668 -9.4309845 152.02157593 C-8.90406509 151.00024063 -8.37714569 149.97890533 -7.83425903 148.92662048 C-7.26442795 147.83381271 -6.69459686 146.74100494 -6.10749817 145.61508179 C-4.91592102 143.28933084 -3.72519147 140.96314548 -2.53523254 138.63656616 C-0.65572911 134.9729933 1.23120189 131.31350205 3.13444519 127.66220093 C4.97110985 124.1365398 6.77563362 120.59488479 8.58000183 117.05258179 C9.15590561 115.96179825 9.73180939 114.87101471 10.32516479 113.74717712 C10.84262772 112.72268967 11.36009064 111.69820221 11.89323425 110.64266968 C12.35654648 109.74729996 12.8198587 108.85193024 13.29721069 107.9294281 C14.27777234 104.40120611 13.48003094 102.57681987 12.03703308 99.26742554 C11.45953308 98.27742554 10.88203308 97.28742554 10.28703308 96.26742554 C9.03703308 93.26742554 9.03703308 93.26742554 9.72453308 90.20492554 C10.15765808 89.23555054 10.59078308 88.26617554 11.03703308 87.26742554 C11.26390808 86.38055054 11.49078308 85.49367554 11.72453308 84.57992554 C13.67718008 81.13954749 16.42370964 80.58136133 20.03703308 79.26742554 C21.41119939 78.10149092 21.41119939 78.10149092 21.41203308 74.89242554 C21.43447323 71.18590032 21.43447323 71.18590032 18.84953308 69.26742554 C15.65996848 68.13335812 14.20367675 68.154821 11.03703308 69.26742554 C8.67301924 71.1961463 8.67301924 71.1961463 8.78703308 74.64242554 C8.7617519 78.12187268 8.7617519 78.12187268 10.17375183 80.24789429 C11.03703308 82.26742554 11.03703308 82.26742554 10.32218933 84.23226929 C9.91871277 84.88324585 9.51523621 85.53422241 9.09953308 86.20492554 C7.36539933 89.31973341 7.36539933 89.31973341 7.09953308 92.82992554 C7.86649507 94.8240267 8.74893274 96.77336712 9.66203308 98.70492554 C11.38992567 103.18173817 11.05914057 105.82169653 9.20710754 110.2532959 C8.10646843 112.57514764 6.95141189 114.8617805 5.77531433 117.14633179 C5.13290047 118.41911232 5.13290047 118.41911232 4.47750854 119.71760559 C3.10905732 122.42561143 1.72983757 125.12794512 0.34953308 127.82992554 C-1.44946152 131.37116512 -3.24429624 134.91449768 -5.03718567 138.45883179 C-5.46788361 139.30990509 -5.89858154 140.16097839 -6.34233093 141.0378418 C-12.74742156 151.77864557 -12.74742156 151.77864557 -15.96296692 163.26742554 C-14.50890442 164.19555054 -14.50890442 164.19555054 -13.02546692 165.14242554 C-9.96296692 167.26742554 -9.96296692 167.26742554 -9.18367004 169.17025757 C-8.79496089 172.86385454 -10.81658104 175.94036777 -12.46296692 179.14242554 C-12.82881897 179.86188354 -13.19467102 180.58134155 -13.5716095 181.32260132 C-16.86576783 187.54070784 -20.16084611 191.00670505 -26.27546692 194.64242554 C-33.81348325 196.39545259 -39.96078387 195.64864213 -46.75984192 191.89633179 C-51.37910001 188.48102926 -53.82605925 183.82935619 -54.96296692 178.26742554 C-55.52894461 172.60764861 -54.1705879 168.68620448 -51.93562317 163.59945679 C-51.05643315 161.49151928 -50.44922068 159.4939559 -49.96296692 157.26742554 C-50.87046692 156.60742554 -51.77796692 155.94742554 -52.71296692 155.26742554 C-56.95490395 151.680471 -59.48677966 147.39217592 -60.33065796 141.85462952 C-60.48078928 139.11677068 -60.50369024 136.40579482 -60.48054504 133.66390991 C-60.48755432 132.63195999 -60.4945636 131.60001007 -60.50178528 130.53678894 C-60.51930982 127.14463954 -60.50776163 123.7533326 -60.49421692 120.36117554 C-60.49691341 117.9928064 -60.50079714 115.62443835 -60.5058136 113.256073 C-60.51170117 108.29995145 -60.5031692 103.34411888 -60.48445129 98.38803101 C-60.46166267 92.04618068 -60.47478966 85.70500757 -60.49874115 79.36318207 C-60.51321888 74.47487314 -60.50858397 69.58672386 -60.49822998 64.69841003 C-60.49556818 62.36050841 -60.49881314 60.02259214 -60.50814819 57.68470764 C-60.5183459 54.41306349 -60.50276637 51.14250481 -60.48054504 47.87094116 C-60.48864197 46.91174271 -60.49673889 45.95254425 -60.50508118 44.96427917 C-60.41707274 37.94383821 -58.82664878 32.65415431 -54.25202942 27.24398804 C-53.70288879 26.79797241 -53.15374817 26.35195679 -52.58796692 25.89242554 C-52.04398254 25.43094116 -51.49999817 24.96945679 -50.93952942 24.49398804 C-45.34364853 21.02144535 -39.94878357 21.01054258 -33.58796692 21.14242554 C-32.75652161 21.15144897 -31.92507629 21.16047241 -31.06843567 21.16976929 C-29.03315355 21.19316333 -26.99802128 21.22902829 -24.96296692 21.26742554 C-24.66906067 20.01316772 -24.37515442 18.75890991 -24.07234192 17.46664429 C-22.46546068 10.60920811 -18.62281005 6.34251259 -12.96296692 2.26742554 C-8.52456883 0.46013048 -4.77417955 0.01325817 0 0 Z M-12.89114475 13.3946085 C-14.34688845 15.93825958 -14.61245349 18.38275406 -14.96296692 21.26742554 C-13.82216927 21.27100807 -13.82216927 21.27100807 -12.6583252 21.27466297 C5.86257424 21.33384563 24.38334077 21.40941664 42.90409851 21.50314045 C51.86067019 21.54807136 60.81720234 21.58749226 69.77384949 21.61386108 C77.58211286 21.63686308 85.39025089 21.67028569 93.1984148 21.7161271 C97.33129538 21.74002967 101.46405204 21.75877785 105.59700012 21.76503944 C109.49093042 21.77110377 113.38454377 21.79115193 117.27835655 21.82170105 C118.70369958 21.83045976 120.12908406 21.83420836 121.5544529 21.8324337 C137.81606491 21.81858569 137.81606491 21.81858569 144.27922058 27.09945679 C144.81804871 27.75301147 145.35687683 28.40656616 145.91203308 29.07992554 C146.46632996 29.72574585 147.02062683 30.37156616 147.59172058 31.03695679 C151.13810829 36.50989565 151.33927929 41.90847891 151.35588074 48.21029663 C151.37094917 49.5283429 151.37094917 49.5283429 151.38632202 50.87301636 C151.41708382 53.76229225 151.43416969 56.65147577 151.45109558 59.54086304 C151.46981286 61.55011791 151.48938669 63.55936497 151.50978088 65.56860352 C151.56104889 70.84568673 151.6007032 76.1227954 151.63792419 81.3999939 C151.67799723 86.78946201 151.72907453 92.17882465 151.77922058 97.56820679 C151.87591677 108.13453889 151.96034178 118.70093062 152.03703308 129.26742554 C157.79812596 129.4517259 160.54002834 129.0489977 165.03703308 125.26742554 C168.76857946 120.65227659 168.46894279 116.20436576 168.44108582 110.53939819 C168.44794907 109.56480148 168.45481232 108.59020477 168.46188354 107.58607483 C168.48016878 104.36773057 168.47631109 101.14987305 168.47062683 97.93148804 C168.47518818 95.69095705 168.48049361 93.45042746 168.48651123 91.2098999 C168.49544603 86.51417355 168.49301536 81.81861723 168.483078 77.12289429 C168.47159495 71.11156732 168.49178825 65.10082835 168.52099514 59.08957863 C168.53936156 54.46210005 168.53906363 49.8347622 168.53335762 45.20725632 C168.53320442 42.99132844 168.53924738 40.77539101 168.55164909 38.55949783 C168.56656307 35.45737341 168.55587787 32.35633296 168.53874207 29.25424194 C168.54841003 28.34283951 168.558078 27.43143707 168.56803894 26.49241638 C168.49997449 20.59395068 167.65971992 17.00255907 164.03703308 12.26742554 C159.60657973 9.54596315 156.26066376 8.88787581 151.09857178 8.86628723 C150.42459805 8.85949056 149.75062432 8.85269389 149.05622715 8.84569126 C146.81081882 8.8267878 144.56595915 8.8291515 142.32048035 8.83163452 C140.70535078 8.8226528 139.09022764 8.8124436 137.47511292 8.80110168 C133.09700408 8.77464274 128.71907123 8.76757006 124.34089017 8.76565433 C121.60401095 8.76351973 118.86717629 8.75711104 116.13030815 8.74916267 C106.57794739 8.72142511 97.02571208 8.70915545 87.47331238 8.71151733 C78.57536351 8.71332029 69.67795991 8.68164791 60.78014904 8.63428634 C53.13409601 8.59504092 45.48822111 8.57896637 37.84206814 8.58088356 C33.27820997 8.58164784 28.71483682 8.57313248 24.15107918 8.54134941 C19.85883639 8.51227165 15.56754124 8.51209002 11.27526474 8.53389931 C9.70271735 8.5370325 8.13011058 8.52997322 6.55766487 8.51181793 C-4.04136911 8.21652054 -4.04136911 8.21652054 -12.89114475 13.3946085 Z " fill="#297DAE" transform="translate(182.9629669189453,116.73257446289063)"/>
<path d="M0 0 C3.19798218 1.72318457 4.30669064 2.58503597 6.375 5.6875 C5.055 6.6775 3.735 7.6675 2.375 8.6875 C1.446875 8.048125 0.51875 7.40875 -0.4375 6.75 C-5.71854042 3.3328562 -10.47005029 2.96723993 -16.625 3.6875 C-19.17321972 4.78852324 -21.27239085 6.18183014 -23.625 7.6875 C-24.945 7.6875 -26.265 7.6875 -27.625 7.6875 C-27.955 6.3675 -28.285 5.0475 -28.625 3.6875 C-27.35668307 2.87107746 -26.08524069 2.05950895 -24.8125 1.25 C-24.10480469 0.79753906 -23.39710938 0.34507812 -22.66796875 -0.12109375 C-15.75740911 -4.15115243 -6.98764439 -3.38702414 0 0 Z " fill="#38A6BE" transform="translate(307.625,194.3125)"/>
<path d="M0 0 C0.66 0 1.32 0 2 0 C0.14179703 12.66956571 -5.48882572 24.02682847 -11.125 35.375 C-11.47401367 36.07786133 -11.82302734 36.78072266 -12.18261719 37.50488281 C-13.66351553 40.45668307 -15.16576916 43.24865375 -17 46 C-17.66 46 -18.32 46 -19 46 C-19.18332886 46.89078247 -19.18332886 46.89078247 -19.37036133 47.79956055 C-20.36254834 51.2670214 -22.57930406 53.94035982 -24.6875 56.8125 C-25.14012207 57.43471436 -25.59274414 58.05692871 -26.05908203 58.69799805 C-35.16918695 71.12634232 -35.16918695 71.12634232 -40 72 C-39.14148438 71.02160156 -38.28296875 70.04320312 -37.3984375 69.03515625 C-19.8730222 48.56485445 -7.99812463 25.57642052 0 0 Z " fill="#3CD2C9" transform="translate(405,246)"/>
<path d="M0 0 C0.33 0.66 0.66 1.32 1 2 C22.78 2 44.56 2 67 2 C67 2.66 67 3.32 67 4 C43.9 4 20.8 4 -3 4 C-3 3.01 -3 2.02 -3 1 C-2.01 0.67 -1.02 0.34 0 0 Z " fill="#53ABC5" transform="translate(192,278)"/>
<path d="M0 0 C0 3 0 3 -2.3125 5.5 C-3.6428125 6.7375 -3.6428125 6.7375 -5 8 C-5.556875 8.598125 -6.11375 9.19625 -6.6875 9.8125 C-8 11 -8 11 -10 11 C-10.33 11.99 -10.66 12.98 -11 14 C-13.0625 14.6875 -13.0625 14.6875 -15 15 C-15 15.66 -15 16.32 -15 17 C-17.13373524 18.62176141 -19.25713275 20.10427712 -21.5 21.5625 C-22.17853027 22.00577637 -22.85706055 22.44905273 -23.55615234 22.90576172 C-25.69426349 24.28675832 -27.84351798 25.64788873 -30 27 C-30.64098633 27.40234863 -31.28197266 27.80469727 -31.94238281 28.21923828 C-57.49725 44 -57.49725 44 -69 44 C-69 43.34 -69 42.68 -69 42 C-68.04222656 41.6596875 -67.08445312 41.319375 -66.09765625 40.96875 C-40.92096323 31.87698868 -18.88545515 19.22945251 0 0 Z " fill="#3BCACC" transform="translate(361,321)"/>
<path d="M0 0 C0.33 0 0.66 0 1 0 C1 29.7 1 59.4 1 90 C9.73151859 88.39396661 9.73151859 88.39396661 15 83 C15.99 82.01 15.99 82.01 17 81 C17.33 81.99 17.66 82.98 18 84 C15.22885886 87.51439423 12.77192851 90.51793121 8.34375 91.72265625 C5.85561399 91.97647472 3.49658834 92.15304756 1 92 C-0.844719 90.155281 -0.1200219 87.55483588 -0.12442017 85.1006012 C-0.12082489 84.25327927 -0.11722961 83.40595734 -0.11352539 82.53295898 C-0.11367142 81.64523804 -0.11381744 80.75751709 -0.1139679 79.84289551 C-0.11326843 76.89393716 -0.10547448 73.94504113 -0.09765625 70.99609375 C-0.09579219 68.95728083 -0.09436823 66.91846746 -0.09336853 64.87965393 C-0.08954241 59.50215426 -0.07971132 54.12468142 -0.06866455 48.74719238 C-0.05845245 43.26440799 -0.05387134 37.78161928 -0.04882812 32.29882812 C-0.03808914 21.53254027 -0.02101159 10.76627236 0 0 Z " fill="#68C7CF" transform="translate(334,156)"/>
<path d="M0 0 C1.11196276 3.33588828 1.09809194 4.70572419 0 8 C-0.91458984 8.39638672 -0.91458984 8.39638672 -1.84765625 8.80078125 C-4.86151047 10.48000674 -5.69450644 12.58471713 -7.25 15.625 C-8.03117187 17.12933594 -8.03117187 17.12933594 -8.828125 18.6640625 C-9.21484375 19.43492188 -9.6015625 20.20578125 -10 21 C-10.66 21 -11.32 21 -12 21 C-11.9175 21.70125 -11.835 22.4025 -11.75 23.125 C-12.0808255 26.92949327 -13.75313314 28.98077266 -16 32 C-15.34 32.33 -14.68 32.66 -14 33 C-15.32 33.66 -16.64 34.32 -18 35 C-17.67 35.66 -17.34 36.32 -17 37 C-17.99 37.495 -17.99 37.495 -19 38 C-19.65213292 40.02463255 -19.65213292 40.02463255 -20 42 C-20.66 42 -21.32 42 -22 42 C-21.56527411 35.4791117 -19.12953817 30.64497968 -16.0625 24.9375 C-15.57612061 24.01880127 -15.08974121 23.10010254 -14.58862305 22.15356445 C-10.33719472 14.28907485 -5.46943478 7.05924879 0 0 Z " fill="#343C8F" transform="translate(87,87)"/>
<path d="M0 0 C0.99 0.7115625 0.99 0.7115625 2 1.4375 C1.67 3.0875 1.34 4.7375 1 6.4375 C0.319375 6.128125 -0.36125 5.81875 -1.0625 5.5 C-4.46724295 4.26849723 -7.37837071 3.63151585 -11 3.4375 C-12.68029994 4.41441857 -14.34928604 5.41138051 -16 6.4375 C-18.3125 5.625 -18.3125 5.625 -20 4.4375 C-18.97427701 1.1323926 -17.93092146 0.39743445 -14.875 -1.375 C-9.60435848 -3.38443208 -5.00064608 -2.60450316 0 0 Z " fill="#48ABC3" transform="translate(305,202.5625)"/>
<path d="M0 0 C0.99 0.33 1.98 0.66 3 1 C-5.48458402 9.65773879 -5.48458402 9.65773879 -9.625 13.0625 C-12.80412308 15.71663028 -15.41347911 18.6801394 -18.08984375 21.83203125 C-21.53385636 25.74087992 -25.27999851 29.35591691 -29 33 C-29.33 32.34 -29.66 31.68 -30 31 C-24.51256913 23.82962987 -18.61617246 17.33332135 -12.1875 11 C-11.34251953 10.15566406 -10.49753906 9.31132813 -9.62695312 8.44140625 C-3.42360618 2.28240412 -3.42360618 2.28240412 0 0 Z " fill="#27338B" transform="translate(120,52)"/>
<path d="M0 0 C0.763125 0.20625 1.52625 0.4125 2.3125 0.625 C2.9375 3.5 2.9375 3.5 3.3125 6.625 C1.3125 8.625 1.3125 8.625 -1.1875 8.875 C-3.6875 8.625 -3.6875 8.625 -5.6875 6.625 C-6 4.125 -6 4.125 -5.6875 1.625 C-2.6875 -0.375 -2.6875 -0.375 0 0 Z " fill="#3EB0C6" transform="translate(297.6875,209.375)"/>
<path d="M0 0 C2.375 0.75 2.375 0.75 3.375 1.75 C3.5625 4.1875 3.5625 4.1875 3.375 6.75 C2.715 7.41 2.055 8.07 1.375 8.75 C-1.75 8.375 -1.75 8.375 -4.625 7.75 C-5.3125 5.4375 -5.3125 5.4375 -5.625 2.75 C-3.9659358 -0.015107 -3.22812218 -0.30744021 0 0 Z " fill="#3E90BA" transform="translate(250.625,223.25)"/>
<path d="M0 0 C1.8125 1.375 1.8125 1.375 2.6875 3.3125 C2.8125 5.375 2.8125 5.375 0.8125 8.375 C-2.3125 8.5625 -2.3125 8.5625 -5.1875 8.375 C-5.5175 6.065 -5.8475 3.755 -6.1875 1.375 C-3.79410847 -0.16360884 -2.80166935 -0.80047696 0 0 Z " fill="#407CB3" transform="translate(150.1875,283.625)"/>
<path d="M0 0 C1.2065625 0.0309375 1.2065625 0.0309375 2.4375 0.0625 C3.5625 2.375 3.5625 2.375 4.4375 5.0625 C3.4475 6.5475 3.4475 6.5475 2.4375 8.0625 C-0.0625 8.375 -0.0625 8.375 -2.5625 8.0625 C-3.2225 7.4025 -3.8825 6.7425 -4.5625 6.0625 C-3.83457637 0.09352625 -3.83457637 0.09352625 0 0 Z " fill="#4975B2" transform="translate(230.5625,170.9375)"/>
<path d="M0 0 C0.66 0.66 1.32 1.32 2 2 C1.67 2.598125 1.34 3.19625 1 3.8125 C-0.20787988 6.05386471 -0.20787988 6.05386471 0 9 C-0.83984375 10.83203125 -0.83984375 10.83203125 -1.9375 12.8125 C-3.71113021 16.20307931 -4.61551944 19.15519438 -5 23 C-5.66 23 -6.32 23 -7 23 C-7.26058291 17.65805035 -6.4842017 13.69014965 -4.625 8.6875 C-4.18414062 7.47449219 -3.74328125 6.26148438 -3.2890625 5.01171875 C-2 2 -2 2 0 0 Z " fill="#353C8F" transform="translate(64,130)"/>
<path d="M0 0 C5.51224736 6.9670927 8.84099466 14.43484565 8.44140625 23.40625 C7.74587699 27.49325381 6.13520714 30.46356317 4 34 C3.34 33.01 2.68 32.02 2 31 C2.99 30.67 3.98 30.34 5 30 C6.94249821 20.28750896 6.1374951 15.35681994 1.3125 6.734375 C0 4 0 4 0 0 Z " fill="#3FC5CB" transform="translate(299,271)"/>
<path d="M0 0 C4.70588235 0.70588235 4.70588235 0.70588235 6 2 C6.04063832 3.66617115 6.042721 5.33388095 6 7 C4.02 7.99 4.02 7.99 2 9 C0.68 8.01 -0.64 7.02 -2 6 C-1.125 1.125 -1.125 1.125 0 0 Z " fill="#446EAF" transform="translate(196,187)"/>
<path d="M0 0 C0 4.61757265 -2.1962375 7.12682796 -5.26171875 10.45703125 C-6.06222656 11.23433594 -6.86273438 12.01164062 -7.6875 12.8125 C-8.49574219 13.60269531 -9.30398437 14.39289063 -10.13671875 15.20703125 C-11.05904297 16.09455078 -11.05904297 16.09455078 -12 17 C-12.33 16.34 -12.66 15.68 -13 15 C-4.738041 4.44191344 -4.738041 4.44191344 0 0 Z " fill="#374291" transform="translate(103,68)"/>
<path d="M0 0 C2.19286344 3.48278312 1.8540848 5.07120994 1 9 C0.60240193 11.7654524 0.27212852 14.53880137 -0.0625 17.3125 C-0.15337891 18.05306641 -0.24425781 18.79363281 -0.33789062 19.55664062 C-0.56028219 21.37088758 -0.78037353 23.18541624 -1 25 C-1.33 25 -1.66 25 -2 25 C-2.05834353 21.77090994 -2.09371115 18.54195662 -2.125 15.3125 C-2.14175781 14.40048828 -2.15851562 13.48847656 -2.17578125 12.54882812 C-2.20936169 7.93151773 -2.23556185 4.18067669 0 0 Z " fill="#2A398A" transform="translate(53,168)"/>
<path d="M0 0 C0 3 0 3 -2.3125 5.5 C-3.199375 6.325 -4.08625 7.15 -5 8 C-5.556875 8.598125 -6.11375 9.19625 -6.6875 9.8125 C-8 11 -8 11 -10 11 C-10.33 11.99 -10.66 12.98 -11 14 C-14.0625 15.1875 -14.0625 15.1875 -17 16 C-12.92118485 11.78522435 -8.58309472 7.89196605 -4.20703125 3.98828125 C-2.7713649 2.69491104 -1.3663719 1.3663719 0 0 Z " fill="#4DD3D0" transform="translate(361,321)"/>
<path d="M0 0 C0.66 0 1.32 0 2 0 C1.49267832 3.85564477 0.65141866 7.56687798 -0.375 11.3125 C-0.60960937 12.17488281 -0.84421875 13.03726562 -1.0859375 13.92578125 C-1.38757813 14.61027344 -1.68921875 15.29476563 -2 16 C-2.99 16.33 -3.98 16.66 -5 17 C-1.92482916 5.47835991 -1.92482916 5.47835991 0 0 Z " fill="#47D2C9" transform="translate(405,246)"/>
<path d="M0 0 C0.33 0.99 0.66 1.98 1 3 C-1.97 5.97 -4.94 8.94 -8 12 C-8.66 11.01 -9.32 10.02 -10 9 C-9.21625 8.236875 -8.4325 7.47375 -7.625 6.6875 C-4.92742283 4.09108195 -4.92742283 4.09108195 -3 1 C-2.01 0.67 -1.02 0.34 0 0 Z " fill="#4D529A" transform="translate(130,70)"/>
<path d="M0 0 C0.66 0.99 1.32 1.98 2 3 C-0.78295469 6.52937632 -3.21953148 9.54519237 -7.69140625 10.6875 C-10.1433261 10.91071888 -12.53890125 11.03466336 -15 11 C-13.00546375 9.9871147 -11.01308225 9.00575016 -8.96484375 8.10546875 C-4.55291873 6.1077763 -2.05327749 4.61987435 0 0 Z " fill="#3AC6CC" transform="translate(350,237)"/>
<path d="M0 0 C0.66 0.33 1.32 0.66 2 1 C2.33 1 2.66 1 3 1 C3.33 1.66 3.66 2.32 4 3 C4.66 3.33 5.32 3.66 6 4 C3.75 5.625 3.75 5.625 1 7 C-1.3125 6.1875 -1.3125 6.1875 -3 5 C-1.125 1.125 -1.125 1.125 0 0 Z " fill="#56B5C3" transform="translate(288,202)"/>
<path d="M0 0 C1.670625 0.061875 1.670625 0.061875 3.375 0.125 C3.045 1.115 2.715 2.105 2.375 3.125 C0.71885343 3.50718767 -0.94957024 3.83895102 -2.625 4.125 C-2.955 3.795 -3.285 3.465 -3.625 3.125 C-4.285 3.785 -4.945 4.445 -5.625 5.125 C-5.625 0.52392493 -4.48911497 0.15479707 0 0 Z " fill="#299FB5" transform="translate(294.625,200.875)"/>
<path d="M0 0 C0.66 0 1.32 0 2 0 C0.41037341 4.03520597 -1.28232318 8.01811282 -3 12 C-4.25556424 8.09380015 -3.81588958 5.63177916 -2 2 C-1.34 2 -0.68 2 0 2 C0 1.34 0 0.68 0 0 Z " fill="#53539B" transform="translate(92,117)"/>
<path d="M0 0 C0.99 0.33 1.98 0.66 3 1 C4 3.625 4 3.625 5 7 C5.95201226 9.35646599 6.97624332 11.67328026 8 14 C7.01 14.495 7.01 14.495 6 15 C4.99539469 12.87717331 3.99644398 10.75166979 3 8.625 C2.443125 7.44164062 1.88625 6.25828125 1.3125 5.0390625 C0 2 0 2 0 0 Z " fill="#3FB5C7" transform="translate(259,282)"/>
<path d="M0 0 C1.32 0.66 2.64 1.32 4 2 C4 2.99 4 3.98 4 5 C3.01 5.66 2.02 6.32 1 7 C0.01 6.01 -0.98 5.02 -2 4 C-1.34 4 -0.68 4 0 4 C0 2.68 0 1.36 0 0 Z " fill="#56B9CB" transform="translate(309,196)"/>
<path d="M0 0 C0.99 0.33 1.98 0.66 3 1 C2.67 2.65 2.34 4.3 2 6 C-0.9719385 4.87548273 -3.33440687 3.77706209 -6 2 C-4.35 2 -2.7 2 -1 2 C-0.67 1.34 -0.34 0.68 0 0 Z " fill="#61BBCD" transform="translate(304,203)"/>
<path d="M0 0 C0.53625 0.391875 1.0725 0.78375 1.625 1.1875 C0.7278125 1.3421875 0.7278125 1.3421875 -0.1875 1.5 C-2.45610966 2.02768987 -2.45610966 2.02768987 -3.9375 3.75 C-4.6490625 4.4615625 -4.6490625 4.4615625 -5.375 5.1875 C-6.365 5.1875 -7.355 5.1875 -8.375 5.1875 C-8.375 4.1975 -8.375 3.2075 -8.375 2.1875 C-2.95961538 -1.0125 -2.95961538 -1.0125 0 0 Z " fill="#4797BE" transform="translate(243.375,231.8125)"/>
<path d="M0 0 C0.33 0.66 0.66 1.32 1 2 C0.00390625 4.1640625 0.00390625 4.1640625 -1.4375 6.625 C-1.91058594 7.44226563 -2.38367188 8.25953125 -2.87109375 9.1015625 C-3.24363281 9.72804688 -3.61617188 10.35453125 -4 11 C-4.99 10.67 -5.98 10.34 -7 10 C-3.535 5.05 -3.535 5.05 0 0 Z " fill="#4BD7CD" transform="translate(386,290)"/>
<path d="M0 0 C2.125 0.375 2.125 0.375 4 1 C3.1875 2.9375 3.1875 2.9375 2 5 C1.01 5.33 0.02 5.66 -1 6 C-1.625 4.125 -1.625 4.125 -2 2 C-1.34 1.34 -0.68 0.68 0 0 Z " fill="#44A8B9" transform="translate(281,196)"/>
<path d="M0 0 C0.33 0.66 0.66 1.32 1 2 C2.65 2 4.3 2 6 2 C6.33 3.32 6.66 4.64 7 6 C4.03824877 5.38722388 2.61941217 4.74627478 0 3 C0 2.01 0 1.02 0 0 Z " fill="#478AB3" transform="translate(170,276)"/>
<path d="M0 0 C0.66 0.66 1.32 1.32 2 2 C1.01 4.97 0.02 7.94 -1 11 C-1.33 11 -1.66 11 -2 11 C-2.25 3.375 -2.25 3.375 0 0 Z " fill="#2A358B" transform="translate(56,155)"/>
<path d="M0 0 C0.66 0 1.32 0 2 0 C0.125 4.75 0.125 4.75 -1 7 C-1.99 7 -2.98 7 -4 7 C-2.92598892 4.08482708 -2.22189824 2.22189824 0 0 Z " fill="#3C3E92" transform="translate(106,95)"/>
<path d="M0 0 C0.88336837 2.4667645 1.1312406 3.63859372 0.22265625 6.140625 C-0.16019531 6.83671875 -0.54304688 7.5328125 -0.9375 8.25 C-1.31777344 8.95640625 -1.69804687 9.6628125 -2.08984375 10.390625 C-2.39019531 10.92171875 -2.69054687 11.4528125 -3 12 C-3.66 11.01 -4.32 10.02 -5 9 C-4.01 8.67 -3.02 8.34 -2 8 C-1.19787372 6.12612784 -1.19787372 6.12612784 -0.8125 3.9375 C-0.65394531 3.20402344 -0.49539063 2.47054688 -0.33203125 1.71484375 C-0.22246094 1.14894531 -0.11289062 0.58304687 0 0 Z " fill="#4CC7CF" transform="translate(306,293)"/>
<path d="M0 0 C0.66 0.33 1.32 0.66 2 1 C-0.97 4.96 -0.97 4.96 -4 9 C-4.33 8.01 -4.66 7.02 -5 6 C-3.59554165 3.7363436 -1.8032087 1.9791315 0 0 Z " fill="#33D0C8" transform="translate(379,301)"/>
<path d="M0 0 C0.66 0.33 1.32 0.66 2 1 C-0.625 5.875 -0.625 5.875 -4 7 C-2.92598892 4.08482708 -2.22189824 2.22189824 0 0 Z " fill="#3C4592" transform="translate(81,96)"/>
</g></svg>